<svg xmlns="http://www.w3.org/2000/svg" width="63.346" height="62.548" viewBox="0 0 63.346 62.548"><defs><style>.a{fill:#74ee15;}.a,.b,.c{fill-rule:evenodd;}.b{fill:#ff006c;}.c{fill:#fff;}</style></defs><g transform="translate(-138.647 -143)"><g transform="translate(155.217 143)"><path class="a" d="M609.033,334.777l-6.12-3.519a1.728,1.728,0,0,0-.85-.258c-.629,0-1.063.5-1.063,1.358V339.4c0,.859.434,1.358,1.063,1.358a1.73,1.73,0,0,0,.85-.258l6.12-3.519a1.161,1.161,0,0,0,0-2.2Zm-1.956,1.2-4.233,2.434-.576.331.576-.54v-5.531l.182.767,4.233,2.434.576.331-.758-.227h0Z" transform="translate(-578.352 -315.053)"/><path class="b" d="M334,317h3.054a17.477,17.477,0,0,0,17.728,17.643v2.969A20.627,20.627,0,0,1,334,317Z" transform="translate(-334 -302.241)"/><path class="b" d="M419.764,143v3.054c-15.686.693-15.7,22.527-.085,23.5.028,1.1-.028,1.866,0,2.969-5.962-.051-10.679-3.209-13.487-8.652a13.731,13.731,0,0,1-1.272-6.447A14.7,14.7,0,0,1,419.764,143Z" transform="translate(-398.898 -143)"/><path class="b" d="M491.56,220.994h-8.906v8.822c-8.48-.293-12.1-10.231-5.938-15.607C482.444,209.207,491.662,213.242,491.56,220.994Z" transform="translate(-461.787 -206.15)"/></g><path class="c" d="M150.986,656.981l-4.8,9.8-4.78-9.8h-2.76l6.43,13.117a1.262,1.262,0,0,0,.46.488,1.212,1.212,0,0,0,.65.185,1.228,1.228,0,0,0,.659-.185,1.194,1.194,0,0,0,.45-.488l6.44-13.117Zm5.938-.986h-2.466v2.229h2.466V656Zm0,4.334h-2.466v10.252h2.466V660.329Zm13.6-4.334h-2.466V667.12a1.025,1.025,0,0,1-.247.74,1,1,0,0,1-.749.256h-4.448a.985.985,0,0,1-.735-.256,1.04,1.04,0,0,1-.251-.759v-3.32a.986.986,0,0,1,.256-.735,1.026,1.026,0,0,1,.749-.251h4.429v-2.466h-4.448a3.957,3.957,0,0,0-1.119.18,3.27,3.27,0,0,0-1.987,1.664,3.421,3.421,0,0,0-.346,1.608v3.339a3.676,3.676,0,0,0,.081.735,3.77,3.77,0,0,0,.251.778,3.6,3.6,0,0,0,.441.735,2.988,2.988,0,0,0,.654.621,3.257,3.257,0,0,0,.887.432,3.718,3.718,0,0,0,1.138.161h4.448a3.714,3.714,0,0,0,.744-.081,3.768,3.768,0,0,0,.778-.251,3.6,3.6,0,0,0,.735-.441,2.9,2.9,0,0,0,.616-.654,3.336,3.336,0,0,0,.427-.891,3.766,3.766,0,0,0,.161-1.143V656Zm4.609,0h-2.466v2.229h2.466Zm0,4.334h-2.466v10.253h2.466V660.329Zm13.657,0h-2.466v11.239a1.025,1.025,0,0,1-.247.74.981.981,0,0,1-.74.256H180.89v2.465h4.448a3.662,3.662,0,0,0,.74-.081,3.808,3.808,0,0,0,.773-.251,3.593,3.593,0,0,0,.735-.441,2.906,2.906,0,0,0,.617-.654,3.337,3.337,0,0,0,.427-.891,3.767,3.767,0,0,0,.161-1.143V660.329Zm-3.452,7.787h-4.429a1.029,1.029,0,0,1-.759-.256,1,1,0,0,1-.256-.74v-6.791h-2.466v6.791a3.484,3.484,0,0,0,.341,1.617,3.243,3.243,0,0,0,.863,1.072,3.346,3.346,0,0,0,1.124.593,3.953,3.953,0,0,0,1.133.18h4.448v-2.466Zm16.654-4.334a3.891,3.891,0,0,0-.185-1.129,3.411,3.411,0,0,0-.593-1.124,3.21,3.21,0,0,0-1.072-.858,3.491,3.491,0,0,0-1.612-.341h-4.448a3.958,3.958,0,0,0-1.12.18,3.27,3.27,0,0,0-1.987,1.664,3.42,3.42,0,0,0-.346,1.608v3.339a3.445,3.445,0,0,0,.346,1.617,3.27,3.27,0,0,0,1.987,1.664,3.95,3.95,0,0,0,1.119.18h4.448a3.718,3.718,0,0,0,.745-.081,3.775,3.775,0,0,0,.778-.251,3.6,3.6,0,0,0,.735-.441,2.907,2.907,0,0,0,.616-.654,3.336,3.336,0,0,0,.427-.892,3.766,3.766,0,0,0,.161-1.143v-3.338Zm-2.466,3.339a1.025,1.025,0,0,1-.247.74,1,1,0,0,1-.749.256H194.1a1.015,1.015,0,0,1-.749-.256,1,1,0,0,1-.256-.74v-3.339a.986.986,0,0,1,.256-.735,1.026,1.026,0,0,1,.749-.251h4.429a1.026,1.026,0,0,1,.74.247,1.008,1.008,0,0,1,.256.759v3.32Z" transform="translate(0 -469.481)"/></g></svg>