<svg data-name="Option 2" xmlns="http://www.w3.org/2000/svg" width="1024" height="1024"><rect id="backgroundrect" width="100%" height="100%" x="0" y="0" fill="none" stroke="none"/>
  <defs>
    <style>
      .cls-1 {
        fill: #0cc;
      }

      .cls-1, .cls-2, .cls-3, .cls-4, .cls-5 {
        fill-rule: evenodd;
      }

      .cls-2 {
        fill: #f39;
      }

      .cls-3 {
        fill: #e92662;
      }

      .cls-4 {
        fill: #f63;
      }

      .cls-5 {
        fill: #fff;
      }
    </style>
  </defs>
  
<g class="currentLayer" style=""><title>Layer 1</title>
    <g id="Logo" class="selected" transform="translate(-28.8043, -50)">
      <path id="Play" class="cls-1" d="M325.8290786743164,409.4001054763794 l-49.213130950927734,-27.515769958496094 A13.898063659667969,13.513155937194824 0 0 0 269.7804946899414,379.86549854278564 C264.72533416748047,379.86549854278564 261.23290252685547,383.765248298645 261.23290252685547,390.484974861145 v55.03153991699219 C261.23290252685547,452.23695850372314 264.72533416748047,456.13603687286377 269.7804946899414,456.13603687286377 a13.904885292053223,13.51978874206543 0 0 0 6.834778308868408,-2.0188488960266113 L325.8290786743164,426.60142993927 c8.458207130432129,-4.730102062225342 8.458207130432129,-12.468581199645996 0,-17.201335906982422 h0 zm-15.728856086730957,9.417757987976074 l-34.04224395751953,19.03448486328125 l-4.630868911743164,2.5865674018859863 l4.630868911743164,-4.2253899574279785 V392.97075366973877 l1.4631335735321045,5.996193885803223 l34.04155731201172,19.03448486328125 l4.631551265716553,2.5865674018859863 l-6.0940022468566895,-1.7714670896530151 h0 z"/>
      <path class="cls-2" d="M79.1086540222168,370.58037281036377 h24.556089401245117 c-0.8703769445419312,73.73507690429688 59.830909729003906,138.23146057128906 142.56173706054688,137.95025634765625 v23.212783813476562 C153.75981903076172,532.6327409744263 79.80233764648438,460.06963062286377 79.1086540222168,370.58037281036377 z" id="svg_2"/>
      <path class="cls-3" d="M246.90851593017578,255.1796464920044 v23.876005172729492 c-126.1405258178711,5.416537284851074 -126.2912826538086,176.13795471191406 -0.6821135878562927,183.7126007080078 c0.22714382410049438,8.621891021728516 -0.22714382410049438,14.590892791748047 0,23.212783813476562 c-47.94098663330078,-0.40191277861595154 -85.87810516357422,-25.089704513549805 -108.4560546875,-67.648681640625 c-7.01417350769043,-13.222664833068848 -10.821049690246582,-31.82737922668457 -10.23170280456543,-50.404903411865234 C129.60549926757812,302.7851152420044 182.5313949584961,255.38194751739502 246.90851593017578,255.1796464920044 z" id="svg_3"/>
      <path class="cls-4" d="M318.5304641723633,371.24358081817627 H246.90851593017578 V440.2187089920044 c-68.1908950805664,-2.2947494983673096 -97.26393127441406,-79.99855041503906 -47.747947692871094,-122.03291320800781 C245.22371673583984,279.08287525177 319.3489761352539,310.6343584060669 318.5304641723633,371.24358081817627 z" id="svg_4"/>
    </g>
    <path id="Vidiyo" class="cls-5" d="M447.7749786376953,269.2533609867096 l-49.20698928833008,100.45437622070312 l-49.013038635253906,-100.45437622070312 H321.25547790527344 l65.93460083007812,134.4940643310547 a12.93382740020752,12.93382740020752 0 0 0 4.716572284698486,5.007933139801025 a12.414595603942871,12.414595603942871 0 0 0 6.661299228668213,1.8968918323516846 a12.587672233581543,12.587672233581543 0 0 0 6.758709907531738,-1.8968918323516846 a12.242388725280762,12.242388725280762 0 0 0 4.619162082672119,-5.007933139801025 l66.03114318847656,-134.4940643310547 H447.7749786376953 zm60.88144302368164,-10.113277435302734 H483.3680877685547 v22.853153228759766 h25.28493309020996 V259.14444375038147 zm0,44.443450927734375 H483.3680877685547 v105.1248550415039 h25.28493309020996 V303.5827066898346 zM648.1063385009766,259.14444375038147 H622.8213653564453 V373.21191811561584 q0,4.957488536834717 -2.5283193588256836,7.584957599639893 t-7.682368278503418,2.625729560852051 H567.0018463134766 q-4.957488536834717,0 -7.536252498626709,-2.625729560852051 t-2.577024459838867,-7.779778480529785 V338.9809305667877 q0,-4.957488536834717 2.625729560852051,-7.53712272644043 t7.682368278503418,-2.577024459838867 H612.6106719970703 V303.5827066898346 H567.0018463134766 a40.586177825927734,40.586177825927734 0 0 0 -11.475282669067383,1.8473169803619385 a33.531761169433594,33.531761169433594 0 0 0 -20.372669219970703,17.06680679321289 q-3.5511276721954346,6.760448932647705 -3.550257682800293,16.484085083007812 v34.23102569580078 a37.65169143676758,37.65169143676758 0 0 0 0.8271178603172302,7.536252498626709 a38.63710403442383,38.63710403442383 0 0 0 2.577024459838867,7.9745988845825195 a36.8593635559082,36.8593635559082 0 0 0 4.522621154785156,7.536252498626709 a30.657285690307617,30.657285690307617 0 0 0 6.710004806518555,6.369938373565674 a33.385643005371094,33.385643005371094 0 0 0 9.09307861328125,4.425210952758789 a38.11874008178711,38.11874008178711 0 0 0 11.669232368469238,1.6524962186813354 H612.6106719970703 a38.09438705444336,38.09438705444336 0 0 0 7.633663654327393,-0.8271178603172302 a38.65449905395508,38.65449905395508 0 0 0 7.9745988845825195,-2.577024459838867 a36.90633010864258,36.90633010864258 0 0 0 7.536252498626709,-4.522621154785156 a29.764936447143555,29.764936447143555 0 0 0 6.32123327255249,-6.710004806518555 a34.215370178222656,34.215370178222656 0 0 0 4.3765058517456055,-9.141782760620117 a38.61623001098633,38.61623001098633 0 0 0 1.6524962186813354,-11.717937469482422 V259.14444375038147 zm47.262264251708984,0 H670.0835723876953 v22.853153228759766 h25.28493309020996 V259.14444375038147 zm0,44.443450927734375 H670.0835723876953 v105.1248550415039 h25.28493309020996 V303.5827066898346 zm140.03688049316406,0 H810.1212921142578 v115.23987579345703 q0,4.957488536834717 -2.529189109802246,7.585827827453613 t-7.584957599639893,2.625729560852051 h-45.60889434814453 V454.31299233436584 H800.0036163330078 a37.50818634033203,37.50818634033203 0 0 0 7.584957599639893,-0.8262481093406677 a39.08936309814453,39.08936309814453 0 0 0 7.925893783569336,-2.577024459838867 a36.9011116027832,36.9011116027832 0 0 0 7.53712272644043,-4.522621154785156 a29.765806198120117,29.765806198120117 0 0 0 6.32123327255249,-6.710004806518555 a34.21971893310547,34.21971893310547 0 0 0 4.375636100769043,-9.140913963317871 a38.6353645324707,38.6353645324707 0 0 0 1.6524962186813354,-11.7188081741333 v-115.23987579345703 zm-35.39820861816406,79.84166717529297 H754.5922393798828 q-5.155788421630859,0 -7.779778480529785,-2.625729560852051 t-2.625729560852051,-7.584957599639893 V303.5827066898346 H718.9026641845703 v69.62923431396484 q0,9.823655128479004 3.500683069229126,16.580625534057617 a33.2525749206543,33.2525749206543 0 0 0 8.849552154541016,10.989100456237793 a34.316261291503906,34.316261291503906 0 0 0 11.52398681640625,6.077707290649414 a40.593135833740234,40.593135833740234 0 0 0 11.621397972106934,1.8481866121292114 H800.0036163330078 V383.42264199256897 zm170.76722717285156,-44.443450927734375 a39.88951873779297,39.88951873779297 0 0 0 -1.896022081375122,-11.572691917419434 a34.96334457397461,34.96334457397461 0 0 0 -6.078577041625977,-11.52398681640625 a32.90207290649414,32.90207290649414 0 0 0 -10.989100456237793,-8.800848007202148 q-6.807415008544922,-3.5015525817871094 -16.531919479370117,-3.500683069229126 H889.6733551025391 A40.57661056518555,40.57661056518555 0 0 0 878.1928863525391,305.4300272464752 a33.5300178527832,33.5300178527832 0 0 0 -20.373538970947266,17.06680679321289 q-3.5511276721954346,6.760448932647705 -3.5493879318237305,16.484085083007812 v34.23102569580078 q0,9.823655128479004 3.5493879318237305,16.580625534057617 A33.5300178527832,33.5300178527832 0 0 0 878.1928863525391,406.8593485355377 a40.518341064453125,40.518341064453125 0 0 0 11.475282669067383,1.8481866121292114 h45.60889434814453 a38.106563568115234,38.106563568115234 0 0 0 7.634532928466797,-0.8271178603172302 a38.66319274902344,38.66319274902344 0 0 0 7.973729610443115,-2.577024459838867 a36.93589782714844,36.93589782714844 0 0 0 7.53712272644043,-4.522621154785156 a29.78407096862793,29.78407096862793 0 0 0 6.32123327255249,-6.710004806518555 a34.187538146972656,34.187538146972656 0 0 0 4.375636100769043,-9.141782760620117 a38.61623001098633,38.61623001098633 0 0 0 1.6524962186813354,-11.717937469482422 V338.9809305667877 zm-25.284061431884766,34.23102569580078 q0,4.957488536834717 -2.529189109802246,7.584957599639893 t-7.682368278503418,2.625729560852051 H889.8638458251953 q-5.056638717651367,0 -7.682368278503418,-2.625729560852051 t-2.625729560852051,-7.584957599639893 V338.9809305667877 q0,-4.957488536834717 2.625729560852051,-7.53712272644043 t7.682368278503418,-2.577024459838867 h45.41494369506836 q4.957488536834717,0 7.585827827453613,2.5283193588256836 t2.625729560852051,7.779778480529785 v34.03707504272461 z"/>
  <polyline fill="none" stroke="#000000" style="color: rgb(0, 0, 0);" stroke-dashoffset="" fill-rule="nonzero" marker-start="" marker-mid="" marker-end="" id="svg_5" points="186.0521697998047,670.2912793159485 184.42173504829407,670.834757566452 "/><polyline fill="none" stroke="#000000" style="color: rgb(0, 0, 0);" stroke-dashoffset="" fill-rule="nonzero" marker-start="" marker-mid="" marker-end="" id="svg_6" points="271.921733379364,748.5521473884583 269.74782037734985,745.8347561359406 266.4869508743286,743.6608431339264 "/><rect fill="none" fill-opacity="1" stroke="#000000" stroke-opacity="1" style="color: rgb(0, 0, 0);" stroke-width="1" stroke-dasharray="none" stroke-linejoin="miter" stroke-linecap="butt" stroke-dashoffset="" fill-rule="nonzero" opacity="1" id="svg_9" x="850" y="594" width="0" height="0"/></g></svg>