{
	"accessors" : 
	[
		{
			"bufferView" : 2,
			"byteOffset" : 0,
			"componentType" : 5126,
			"count" : 1210,
			"max" : 
			[
				0.9075472354888916,
				0.6940805315971375,
				0.7893137335777283,
				1
			],
			"min" : 
			[
				5.692175545846112e-05,
				0.006584956776350737,
				0.006584956776350737,
				1
			],
			"name" : "accessor_color_m0-PolyPaper21_-221432",
			"type" : "VEC4"
		},
		{
			"bufferView" : 2,
			"byteOffset" : 19360,
			"componentType" : 5126,
			"count" : 96,
			"max" : 
			[
				1,
				1,
				1,
				1
			],
			"min" : 
			[
				1,
				1,
				1,
				1
			],
			"name" : "accessor_color_m1-PolyGlass24_-221438",
			"type" : "VEC4"
		},
		{
			"bufferView" : 2,
			"byteOffset" : 20896,
			"componentType" : 5126,
			"count" : 42,
			"max" : 
			[
				1,
				1,
				1,
				1
			],
			"min" : 
			[
				1,
				1,
				1,
				1
			],
			"name" : "accessor_color_m2-PolyGem25_-221444",
			"type" : "VEC4"
		},
		{
			"bufferView" : 0,
			"byteOffset" : 0,
			"componentType" : 5123,
			"count" : 1968,
			"max" : 
			[
				1209
			],
			"min" : 
			[
				0
			],
			"name" : "accessor_indices_0_m0-PolyPaper21_-221432",
			"type" : "SCALAR"
		},
		{
			"bufferView" : 0,
			"byteOffset" : 3936,
			"componentType" : 5123,
			"count" : 156,
			"max" : 
			[
				95
			],
			"min" : 
			[
				0
			],
			"name" : "accessor_indices_0_m1-PolyGlass24_-221438",
			"type" : "SCALAR"
		},
		{
			"bufferView" : 0,
			"byteOffset" : 4248,
			"componentType" : 5123,
			"count" : 72,
			"max" : 
			[
				41
			],
			"min" : 
			[
				0
			],
			"name" : "accessor_indices_0_m2-PolyGem25_-221444",
			"type" : "SCALAR"
		},
		{
			"bufferView" : 1,
			"byteOffset" : 14520,
			"componentType" : 5126,
			"count" : 1210,
			"max" : 
			[
				1,
				1,
				1
			],
			"min" : 
			[
				-1,
				-1,
				-1
			],
			"name" : "accessor_normal_m0-PolyPaper21_-221432",
			"type" : "VEC3"
		},
		{
			"bufferView" : 1,
			"byteOffset" : 30192,
			"componentType" : 5126,
			"count" : 96,
			"max" : 
			[
				1,
				1,
				1
			],
			"min" : 
			[
				-1,
				-1,
				-1
			],
			"name" : "accessor_normal_m1-PolyGlass24_-221438",
			"type" : "VEC3"
		},
		{
			"bufferView" : 1,
			"byteOffset" : 31848,
			"componentType" : 5126,
			"count" : 42,
			"max" : 
			[
				0.8740809,
				0.9998664,
				1
			],
			"min" : 
			[
				-0.874081,
				-0.9998664,
				-1
			],
			"name" : "accessor_normal_m2-PolyGem25_-221444",
			"type" : "VEC3"
		},
		{
			"bufferView" : 1,
			"byteOffset" : 0,
			"componentType" : 5126,
			"count" : 1210,
			"max" : 
			[
				-1.139522e-05,
				2.249939,
				-1.382977
			],
			"min" : 
			[
				-0.7600937,
				0.7456621,
				-1.551568
			],
			"name" : "accessor_position_m0-PolyPaper21_-221432",
			"type" : "VEC3"
		},
		{
			"bufferView" : 1,
			"byteOffset" : 29040,
			"componentType" : 5126,
			"count" : 96,
			"max" : 
			[
				-0.1429596,
				2.208056,
				-1.382406
			],
			"min" : 
			[
				-0.3103004,
				1.950073,
				-1.558453
			],
			"name" : "accessor_position_m1-PolyGlass24_-221438",
			"type" : "VEC3"
		},
		{
			"bufferView" : 1,
			"byteOffset" : 31344,
			"componentType" : 5126,
			"count" : 42,
			"max" : 
			[
				-0.1259599,
				2.208056,
				-1.382406
			],
			"min" : 
			[
				-0.3103004,
				2.002162,
				-1.555915
			],
			"name" : "accessor_position_m2-PolyGem25_-221444",
			"type" : "VEC3"
		}
	],
	"asset" : 
	{
		"copyright" : "Unknown",
		"generator" : "glTF 1-to-2 Upgrader for Google Blocks",
		"version" : "2.0"
	},
	"bufferViews" : 
	[
		{
			"buffer" : 0,
			"byteLength" : 4392,
			"byteOffset" : 0,
			"name" : "ushortBufferView",
			"target" : 34963
		},
		{
			"buffer" : 0,
			"byteLength" : 32352,
			"byteOffset" : 4392,
			"byteStride" : 12,
			"name" : "vec3BufferView",
			"target" : 34962
		},
		{
			"buffer" : 0,
			"byteLength" : 21568,
			"byteOffset" : 36744,
			"byteStride" : 16,
			"name" : "vec4BufferView",
			"target" : 34962
		}
	],
	"buffers" : 
	[
		{
			"byteLength" : 58312,
			"name" : "model",
			"uri" : "model.bin"
		}
	],
	"materials" : 
	[
		{
			"alphaMode" : "OPAQUE",
			"doubleSided" : false,
			"name" : "BlocksPaper",
			"pbrMetallicRoughness" : 
			{
				"baseColorFactor" : 
				[
					1,
					1,
					1,
					1
				],
				"metallicFactor" : 0,
				"roughnessFactor" : 0.6
			}
		},
		{
			"alphaMode" : "BLEND",
			"doubleSided" : false,
			"name" : "BlocksGlass",
			"pbrMetallicRoughness" : 
			{
				"baseColorFactor" : 
				[
					0.2,
					0.2,
					1,
					0.3
				],
				"metallicFactor" : 1,
				"roughnessFactor" : 0.4
			}
		},
		{
			"alphaMode" : "OPAQUE",
			"doubleSided" : true,
			"name" : "BlocksGem",
			"pbrMetallicRoughness" : 
			{
				"baseColorFactor" : 
				[
					1,
					0.4,
					1,
					1
				],
				"metallicFactor" : 0,
				"roughnessFactor" : 0.1
			}
		}
	],
	"meshes" : 
	[
		{
			"name" : "mesh_m0-PolyPaper21_-221432",
			"primitives" : 
			[
				{
					"attributes" : 
					{
						"COLOR_0" : 0,
						"NORMAL" : 6,
						"POSITION" : 9
					},
					"indices" : 3,
					"material" : 0,
					"mode" : 4
				}
			]
		},
		{
			"name" : "mesh_m1-PolyGlass24_-221438",
			"primitives" : 
			[
				{
					"attributes" : 
					{
						"COLOR_0" : 1,
						"NORMAL" : 7,
						"POSITION" : 10
					},
					"indices" : 4,
					"material" : 1,
					"mode" : 4
				}
			]
		},
		{
			"name" : "mesh_m2-PolyGem25_-221444",
			"primitives" : 
			[
				{
					"attributes" : 
					{
						"COLOR_0" : 2,
						"NORMAL" : 8,
						"POSITION" : 11
					},
					"indices" : 5,
					"material" : 2,
					"mode" : 4
				}
			]
		}
	],
	"nodes" : 
	[
		{
			"matrix" : 
			[
				1,
				0,
				0,
				0,
				0,
				1,
				0,
				0,
				0,
				0,
				1,
				0,
				0,
				0,
				0,
				1
			],
			"mesh" : 0,
			"name" : "node_MeshObject-280801280-PolyPaper21"
		},
		{
			"matrix" : 
			[
				1,
				0,
				0,
				0,
				0,
				1,
				0,
				0,
				0,
				0,
				1,
				0,
				0,
				0,
				0,
				1
			],
			"mesh" : 2,
			"name" : "node_MeshObject2016263168-PolyGem25"
		},
		{
			"matrix" : 
			[
				1,
				0,
				0,
				0,
				0,
				1,
				0,
				0,
				0,
				0,
				1,
				0,
				0,
				0,
				0,
				1
			],
			"mesh" : 1,
			"name" : "node_MeshObject291277824-PolyGlass24"
		}
	],
	"scene" : 0,
	"scenes" : 
	[
		{
			"extras" : {},
			"name" : "defaultScene",
			"nodes" : 
			[
				0,
				2,
				1
			]
		}
	]
}